<?xml version="1.0" encoding="utf-8"?>
<!-- Generator: Adobe Illustrator 16.0.0, SVG Export Plug-In . SVG Version: 6.00 Build 0)  -->
<!DOCTYPE svg PUBLIC "-//W3C//DTD SVG 1.1//EN" "http://www.w3.org/Graphics/SVG/1.1/DTD/svg11.dtd">
<svg version="1.1" id="Capa_1" xmlns="http://www.w3.org/2000/svg" xmlns:xlink="http://www.w3.org/1999/xlink" x="0px" y="0px"
	 width="248px" height="50px" viewBox="0 0 248 50" enable-background="new 0 0 248 50" xml:space="preserve">
<g>
	<path fill="#A83B18" d="M236.982,10.94c-2.068-2.068-4.564-3.103-7.486-3.103c-2.943,0-5.449,1.034-7.518,3.103
		c-2.047,2.068-3.07,4.563-3.07,7.485c0,2.943,1.023,5.449,3.07,7.518c2.068,2.047,4.574,3.07,7.518,3.07s5.439-1.023,7.486-3.07
		c2.068-2.068,3.104-4.574,3.104-7.518C240.086,15.504,239.051,13.009,236.982,10.94z"/>
	<path fill="none" d="M229.268,7.848c-2.844,0.054-5.275,1.079-7.289,3.093c-0.045,0.046-0.084,0.096-0.129,0.144l7.418,7.417V7.848
		z"/>
	<path fill="none" d="M218.955,19.466c0.215,2.497,1.223,4.657,3.023,6.478c0.07,0.07,0.145,0.129,0.217,0.195l6.674-6.673H218.955z
		"/>
	<path fill="none" d="M221.471,11.503c-1.701,1.954-2.563,4.26-2.563,6.923c0,0.161,0.016,0.316,0.021,0.476h9.939L221.471,11.503z"
		/>
	<path fill="none" d="M237.178,11.155c-0.066-0.071-0.125-0.146-0.195-0.215c-1.988-1.987-4.375-3.011-7.15-3.088v10.649
		L237.178,11.155z"/>
	<path fill="none" d="M240.064,18.901c0.006-0.159,0.021-0.314,0.021-0.476c0-2.632-0.848-4.914-2.525-6.854l-7.33,7.329H240.064z"
		/>
	<path fill="none" d="M222.615,26.518c1.883,1.61,4.1,2.439,6.652,2.486v-9.139L222.615,26.518z"/>
	<path fill="none" d="M230.23,19.466l6.609,6.607c0.047-0.045,0.096-0.084,0.143-0.13c1.82-1.82,2.838-3.98,3.057-6.478H230.23z"/>
	<path fill="none" d="M229.832,29c2.537-0.069,4.734-0.918,6.59-2.545l-6.59-6.591V29z"/>
	<path fill="#F7F3C3" d="M240.039,19.466c0.016-0.186,0.018-0.376,0.025-0.564h-9.834l7.33-7.329
		c-0.123-0.142-0.252-0.28-0.383-0.417l-7.346,7.347V7.853c-0.113-0.003-0.221-0.015-0.336-0.015c-0.078,0-0.152,0.009-0.229,0.01
		v10.653l-7.418-7.417c-0.131,0.137-0.256,0.277-0.379,0.419l7.398,7.398h-9.939c0.006,0.188,0.008,0.379,0.025,0.564h9.914
		l-6.674,6.673c0.139,0.131,0.277,0.258,0.42,0.379l6.652-6.652v9.139c0.076,0.002,0.15,0.01,0.229,0.01
		c0.115,0,0.223-0.012,0.336-0.014v-9.136l6.59,6.591c0.141-0.124,0.281-0.249,0.418-0.382l-6.609-6.607H240.039z"/>
	<path fill="#513D2D" d="M242.516,5.406C238.912,1.803,234.572,0,229.496,0s-9.416,1.803-13.02,5.406
		c-3.604,3.604-5.406,7.943-5.406,13.02s1.803,9.416,5.406,13.02c3.604,3.604,7.943,5.406,13.02,5.406
		c4.629,0,8.158-1.29,10.59-3.871c0,1.088,0.383,1.995,1.15,2.72c0.768,0.768,1.674,1.151,2.721,1.151h0.096
		c1.043,0,1.951-0.384,2.719-1.151c0.768-0.725,1.15-1.632,1.15-2.72V18.426C247.922,13.35,246.121,9.011,242.516,5.406z
		 M236.982,25.943c-0.047,0.046-0.096,0.085-0.143,0.13c-0.137,0.133-0.277,0.258-0.418,0.382c-1.855,1.627-4.053,2.476-6.59,2.545
		c-0.113,0.002-0.221,0.014-0.336,0.014c-0.078,0-0.152-0.008-0.229-0.01c-2.553-0.047-4.77-0.876-6.652-2.486
		c-0.143-0.121-0.281-0.248-0.42-0.379c-0.072-0.066-0.146-0.125-0.217-0.195c-1.801-1.82-2.809-3.98-3.023-6.478
		c-0.018-0.186-0.02-0.376-0.025-0.564c-0.006-0.159-0.021-0.314-0.021-0.476c0-2.663,0.861-4.969,2.563-6.923
		c0.123-0.142,0.248-0.282,0.379-0.419c0.045-0.048,0.084-0.098,0.129-0.144c2.014-2.014,4.445-3.039,7.289-3.093
		c0.076-0.001,0.15-0.01,0.229-0.01c0.115,0,0.223,0.012,0.336,0.015c2.775,0.077,5.162,1.101,7.15,3.088
		c0.07,0.069,0.129,0.144,0.195,0.215c0.131,0.137,0.26,0.275,0.383,0.417c1.678,1.939,2.525,4.222,2.525,6.854
		c0,0.161-0.016,0.316-0.021,0.476c-0.008,0.188-0.01,0.379-0.025,0.564C239.82,21.963,238.803,24.123,236.982,25.943z"/>
	<path fill="#A83B18" d="M84.107,10.94c-2.068-2.068-4.563-3.103-7.485-3.103c-2.942,0-5.449,1.034-7.517,3.103
		c-2.047,2.068-3.071,4.563-3.071,7.485c0,2.943,1.023,5.449,3.071,7.518c2.068,2.047,4.575,3.07,7.517,3.07
		c2.943,0,5.438-1.023,7.485-3.07c2.069-2.068,3.104-4.574,3.104-7.518C87.211,15.504,86.176,13.009,84.107,10.94z"/>
	<path fill="none" d="M66.08,19.466c0.216,2.497,1.223,4.657,3.025,6.478c0.038,0.037,0.078,0.068,0.116,0.104l6.583-6.582H66.08z"
		/>
	<path fill="none" d="M76.202,7.856c-2.76,0.096-5.129,1.115-7.097,3.084c-0.079,0.079-0.145,0.163-0.22,0.243l7.317,7.318V7.856z"
		/>
	<path fill="none" d="M68.505,11.604c-1.643,1.933-2.471,4.205-2.471,6.822c0,0.161,0.015,0.316,0.021,0.476h9.749L68.505,11.604z"
		/>
	<path fill="none" d="M84.212,11.056c-0.037-0.038-0.067-0.078-0.105-0.115c-2.034-2.034-4.482-3.063-7.341-3.097v10.658
		L84.212,11.056z"/>
	<path fill="none" d="M87.189,18.901c0.006-0.159,0.021-0.314,0.021-0.476c0-2.677-0.88-4.992-2.617-6.953l-7.428,7.429H87.189z"/>
	<path fill="none" d="M69.639,26.427c1.858,1.627,4.046,2.483,6.563,2.569v-9.132L69.639,26.427z"/>
	<path fill="none" d="M77.166,19.466l6.699,6.698c0.08-0.075,0.164-0.142,0.242-0.221c1.821-1.82,2.839-3.98,3.057-6.478H77.166z"/>
	<path fill="none" d="M76.766,29.008c2.573-0.029,4.8-0.852,6.682-2.463l-6.682-6.681V29.008z"/>
	<path fill="#F7F3C3" d="M87.164,19.466c0.016-0.186,0.018-0.376,0.025-0.564H77.166l7.428-7.429
		c-0.124-0.141-0.248-0.281-0.381-0.417l-7.446,7.446V7.844c-0.049,0-0.096-0.006-0.145-0.006c-0.143,0-0.279,0.014-0.42,0.019
		v10.646l-7.317-7.318c-0.13,0.139-0.259,0.277-0.379,0.42l7.298,7.298h-9.749c0.007,0.188,0.009,0.379,0.025,0.564h9.724
		l-6.583,6.582c0.137,0.133,0.278,0.256,0.419,0.379l6.563-6.563v9.132c0.141,0.004,0.277,0.018,0.42,0.018
		c0.049,0,0.096-0.006,0.145-0.006v-9.144l6.682,6.681c0.141-0.121,0.279-0.25,0.417-0.381l-6.699-6.698H87.164z"/>
	<path fill="#513D2D" d="M89.642,5.406C86.037,1.803,81.698,0,76.622,0c-5.076,0-9.416,1.803-13.02,5.406
		c-3.604,3.604-5.406,7.943-5.406,13.02s1.802,9.416,5.406,13.02c3.604,3.604,7.944,5.406,13.02,5.406
		c4.628,0,8.158-1.29,10.589-3.871c0,1.088,0.384,1.995,1.151,2.72c0.768,0.768,1.674,1.151,2.719,1.151h0.096
		c1.044,0,1.952-0.384,2.719-1.151c0.768-0.725,1.151-1.632,1.151-2.72V18.426C95.048,13.35,93.246,9.011,89.642,5.406z
		 M84.107,25.943c-0.078,0.079-0.162,0.146-0.242,0.221c-0.138,0.131-0.276,0.26-0.417,0.381c-1.881,1.611-4.108,2.434-6.682,2.463
		c-0.049,0-0.095,0.006-0.145,0.006c-0.143,0-0.279-0.014-0.42-0.018c-2.516-0.086-4.704-0.942-6.563-2.569
		c-0.141-0.123-0.282-0.246-0.419-0.379c-0.038-0.036-0.078-0.067-0.116-0.104c-1.802-1.82-2.809-3.98-3.025-6.478
		c-0.016-0.186-0.018-0.376-0.025-0.564c-0.006-0.159-0.021-0.314-0.021-0.476c0-2.617,0.828-4.89,2.471-6.822
		c0.121-0.143,0.25-0.281,0.379-0.42c0.075-0.08,0.142-0.164,0.22-0.243c1.968-1.969,4.337-2.988,7.097-3.084
		c0.141-0.005,0.277-0.019,0.42-0.019c0.049,0,0.096,0.006,0.145,0.006c2.859,0.034,5.307,1.063,7.341,3.097
		c0.038,0.037,0.069,0.077,0.105,0.115c0.133,0.136,0.257,0.276,0.381,0.417c1.737,1.961,2.617,4.276,2.617,6.953
		c0,0.161-0.015,0.316-0.021,0.476c-0.007,0.188-0.009,0.379-0.025,0.564C86.946,21.963,85.928,24.123,84.107,25.943z"/>
	<path fill="#513D2D" d="M7.916,32.98c0,1.088-0.383,1.995-1.151,2.72c-0.768,0.768-1.675,1.151-2.719,1.151H3.949
		c-1.045,0-1.952-0.384-2.719-1.151c-0.769-0.725-1.152-1.632-1.152-2.72V15.387c0-4.223,1.504-7.848,4.511-10.876
		C7.595,1.503,11.221,0,15.465,0c5.075,0,8.904,1.685,11.483,5.055C29.509,1.685,33.326,0,38.402,0
		c4.243,0,7.869,1.503,10.876,4.511c3.006,3.028,4.51,6.653,4.51,10.876V32.98c0,1.067-0.373,1.973-1.12,2.72
		c-0.768,0.768-1.685,1.151-2.751,1.151h-0.064c-1.088,0-1.995-0.384-2.719-1.151c-0.768-0.725-1.151-1.632-1.151-2.72V15.387
		c0-2.09-0.736-3.871-2.208-5.342c-1.471-1.472-3.263-2.207-5.374-2.207c-2.091,0-3.871,0.735-5.342,2.207
		c-1.472,1.471-2.208,3.252-2.208,5.342V32.98c0,1.088-0.384,1.995-1.152,2.72c-0.725,0.768-1.631,1.151-2.718,1.151h-0.064
		c-1.067,0-1.983-0.384-2.751-1.151c-0.768-0.725-1.152-1.632-1.152-2.72V15.387c0-2.09-0.735-3.871-2.207-5.342
		c-1.472-1.472-3.252-2.207-5.342-2.207c-2.091,0-3.871,0.735-5.342,2.207c-1.472,1.471-2.208,3.252-2.208,5.342V32.98z"/>
	<path fill="#513D2D" d="M107.293,21.4c0,2.111,0.736,3.914,2.208,5.406c1.492,1.472,3.305,2.207,5.438,2.207
		c2.111,0,3.913-0.735,5.406-2.207c1.472-1.492,2.208-3.295,2.208-5.406V3.902c0-1.066,0.384-1.983,1.151-2.751
		C124.471,0.383,125.389,0,126.455,0h0.063c1.088,0,1.994,0.383,2.721,1.151c0.768,0.768,1.15,1.685,1.15,2.751V21.4
		c0,4.244-1.514,7.881-4.543,10.908c-3.027,3.028-6.664,4.543-10.907,4.543c-4.266,0-7.912-1.515-10.94-4.543
		c-3.029-3.027-4.543-6.664-4.543-10.908V3.902c0-1.066,0.384-1.983,1.152-2.751C101.375,0.383,102.281,0,103.327,0h0.096
		c1.045,0,1.951,0.383,2.719,1.151c0.768,0.768,1.151,1.685,1.151,2.751V21.4z"/>
	<path fill="#513D2D" d="M150.727,0c1.066,0,1.984,0.383,2.752,1.151c0.746,0.768,1.119,1.685,1.119,2.751v0.063
		c0,1.067-0.373,1.974-1.119,2.72c-0.768,0.768-1.686,1.152-2.752,1.152h-1.822c-1.75,0-3.23,0.607-4.447,1.822
		c-1.195,1.216-1.803,2.698-1.822,4.447V32.98c0,1.088-0.385,1.995-1.152,2.72c-0.768,0.768-1.674,1.151-2.719,1.151h-0.096
		c-1.045,0-1.951-0.384-2.719-1.151c-0.77-0.725-1.152-1.632-1.152-2.72V14.107c0.043-3.903,1.418-7.229,4.127-9.98
		c2.75-2.752,6.078-4.127,9.98-4.127H150.727z"/>
	<path fill="#513D2D" d="M161.277,0c1.088,0,1.994,0.383,2.719,1.151c0.768,0.768,1.152,1.685,1.152,2.751V32.98
		c0,1.088-0.385,1.995-1.152,2.72c-0.725,0.768-1.631,1.151-2.719,1.151h-0.064c-1.066,0-1.982-0.384-2.75-1.151
		c-0.77-0.725-1.152-1.632-1.152-2.72V3.902c0-1.066,0.383-1.983,1.152-2.751C159.23,0.383,160.146,0,161.213,0H161.277z"/>
	<path fill="#79A686" d="M188.236,7.838c-2.943,0-5.449,1.034-7.518,3.103c-2.047,2.068-3.07,4.563-3.07,7.485
		c0,2.943,1.023,5.449,3.07,7.518c2.068,2.047,4.574,3.07,7.518,3.07s5.439-1.023,7.486-3.07c2.068-2.068,3.104-4.574,3.104-7.518
		v-0.191c-0.043-2.88-1.1-5.332-3.168-7.358C193.611,8.851,191.137,7.838,188.236,7.838z"/>
	<path fill="#513D2D" d="M201.225,5.374C197.621,1.791,193.291,0,188.236,0c-5.074,0-9.416,1.803-13.02,5.406
		c-3.604,3.604-5.406,7.944-5.406,13.02c0,5.076,1.803,9.416,5.406,13.02c3.604,3.604,7.945,5.406,13.02,5.406
		c4.629,0,8.158-1.76,10.59-5.278c0,2.837-1.121,5.321-3.359,7.454c-2.154,2.09-4.564,3.135-7.23,3.135
		c-4.264,0-7.453-1.611-9.564-4.83c-0.811-1.195-1.813-1.792-3.008-1.792c-0.49,0-1.002,0.097-1.535,0.288l-0.096,0.031
		c-1.193,0.428-1.982,1.237-2.367,2.432c-0.148,0.426-0.223,0.853-0.223,1.279c0,0.704,0.213,1.387,0.639,2.048
		c3.582,5.587,8.969,8.382,16.154,8.382c4.691,0,8.904-1.792,12.637-5.375c3.859-3.711,5.791-8.061,5.791-13.052V18.361
		C206.641,13.265,204.828,8.937,201.225,5.374z M198.826,18.426c0,2.943-1.035,5.449-3.104,7.518
		c-2.047,2.047-4.543,3.07-7.486,3.07s-5.449-1.023-7.518-3.07c-2.047-2.068-3.07-4.574-3.07-7.518c0-2.922,1.023-5.417,3.07-7.485
		c2.068-2.068,4.574-3.103,7.518-3.103c2.9,0,5.375,1.013,7.422,3.038c2.068,2.026,3.125,4.479,3.168,7.358V18.426z"/>
</g>
</svg>
